<svg width="16" height="16" viewBox="0 0 16 16" fill="none" xmlns="http://www.w3.org/2000/svg">
<path d="M7.2447 9.63608L7.23913 9.14861C7.2317 8.86019 7.26329 8.60426 7.33389 8.38084C7.40821 8.15741 7.52713 7.9543 7.69064 7.77149C7.85414 7.58463 8.06224 7.40792 8.31494 7.24137C8.5379 7.09106 8.71628 6.94888 8.85006 6.81483C8.98383 6.67671 9.0786 6.52843 9.13434 6.37C9.19379 6.21158 9.22352 6.0308 9.22352 5.82769V5.8155C9.22352 5.58395 9.1715 5.37881 9.06745 5.20007C8.96711 5.02133 8.82219 4.88118 8.63266 4.77962C8.44686 4.674 8.22761 4.62119 7.97492 4.62119C7.71851 4.62119 7.49554 4.674 7.30602 4.77962C7.1165 4.88524 6.966 5.03757 6.85452 5.23663C6.74303 5.43162 6.67986 5.66114 6.66499 5.92518L6.65385 5.93128L5.5 5.93737V5.92518C5.51858 5.47021 5.62449 5.05992 5.81773 4.69431C6.01468 4.32464 6.29896 4.03419 6.67057 3.82295C7.04218 3.60765 7.49554 3.5 8.03066 3.5C8.5249 3.5 8.95596 3.59952 9.32386 3.79858C9.69547 3.99357 9.98346 4.26168 10.1878 4.60291C10.3959 4.94008 10.5 5.326 10.5 5.76066V5.77285C10.5 6.08564 10.4535 6.37 10.3606 6.62593C10.2677 6.87779 10.134 7.10528 9.95931 7.30839C9.78465 7.50745 9.57284 7.68822 9.32386 7.85071C9.08603 8.00508 8.90022 8.15132 8.76644 8.28944C8.63266 8.42349 8.5379 8.5677 8.48216 8.72207C8.43014 8.87237 8.40412 9.05315 8.40412 9.26439V9.63608H7.2447ZM7.8913 12.5C7.63489 12.5 7.42679 12.4167 7.267 12.2502C7.10721 12.0836 7.02731 11.8642 7.02731 11.5921C7.02731 11.3158 7.10721 11.0944 7.267 10.9279C7.42679 10.7573 7.63489 10.672 7.8913 10.672C8.15143 10.672 8.35953 10.7573 8.51561 10.9279C8.67168 11.0944 8.74972 11.3158 8.74972 11.5921C8.74972 11.8642 8.67168 12.0836 8.51561 12.2502C8.35953 12.4167 8.15143 12.5 7.8913 12.5Z" fill="#909090"/>
<circle cx="8" cy="8" r="6.5" stroke="#909090"/>
</svg>
